HIERARCHY
ROOT Hips
{
	OFFSET 0.00000 0.00000 0.00000
	CHANNELS 6 Xposition Yposition Zposition Zrotation Yrotation Xrotation 
	JOINT LHipJoint
	{
		OFFSET 0 0 0
		CHANNELS 3 Zrotation Yrotation Xrotation
		JOINT LeftHip
		{
			OFFSET 3.13874 -1.57224 1.49786
			CHANNELS 3 Zrotation Yrotation Xrotation
			JOINT LeftKnee
			{
				OFFSET 2.10955 -5.79594 0.00000
				CHANNELS 3 Zrotation Yrotation Xrotation
				JOINT LeftAnkle
				{
					OFFSET 2.41843 -6.64458 0.00000
					CHANNELS 3 Zrotation Yrotation Xrotation
					JOINT LeftToe
					{
						OFFSET 0.04713 -0.12948 1.66229
						CHANNELS 3 Zrotation Yrotation Xrotation
						End Site
						{
							OFFSET 0.00000 -0.00000 0.85167
						}
					}
				}
			}
		}
	}
	JOINT RHipJoint
	{
		OFFSET 0 0 0
		CHANNELS 3 Zrotation Yrotation Xrotation
		JOINT RightHip
		{
			OFFSET -3.13988 -1.57224 1.49786
			CHANNELS 3 Zrotation Yrotation Xrotation
			JOINT RightKnee
			{
				OFFSET -2.15006 -5.90725 0.00000
				CHANNELS 3 Zrotation Yrotation Xrotation
				JOINT RightAnkle
				{
					OFFSET -2.34496 -6.44273 0.00000
					CHANNELS 3 Zrotation Yrotation Xrotation
					JOINT RightToe
					{
						OFFSET -0.08699 -0.23900 1.55223
						CHANNELS 3 Zrotation Yrotation Xrotation
						End Site
						{
							OFFSET -0.00000 -0.00000 0.80281
						}
					}
				}
			}
		}
	}
	JOINT lowerback
	{
		OFFSET 0 0 0
		CHANNELS 3 Zrotation Yrotation Xrotation
		JOINT Chest
		{
			OFFSET 0.01292 1.96517 -0.16495
			CHANNELS 3 Zrotation Yrotation Xrotation
			JOINT Chest2
			{
				OFFSET 0.02122 1.88666 0.19706
				CHANNELS 3 Zrotation Yrotation Xrotation
				JOINT lowerneck
				{
					OFFSET 0 0 0
					CHANNELS 3 Zrotation Yrotation Xrotation
					JOINT Neck
					{
						OFFSET -0.01683 1.81591 0.07903
						CHANNELS 3 Zrotation Yrotation Xrotation
						JOINT Head
						{
							OFFSET 0.00815 1.74013 -0.47700
							CHANNELS 3 Zrotation Yrotation Xrotation
							End Site
							{
								OFFSET -0.00204 1.83225 -0.16933
							}
						}
					}
				}
				JOINT LeftCollar
				{
					OFFSET 0 0 0
					CHANNELS 3 Zrotation Yrotation Xrotation
					JOINT LeftShoulder
					{
						OFFSET 3.38482 1.41533 0.19802
CHANNELS 3 Zrotation Xrotation Yrotation
						JOINT LeftElbow
						{
OFFSET 0 -4.327120 0.000000
CHANNELS 3 Zrotation Xrotation Yrotation
							JOINT LeftWrist
							{
OFFSET 0 -3.285870 -0.000000
CHANNELS 3 Zrotation Xrotation Yrotation
								JOINT lhand
								{
									OFFSET 0 0 0
CHANNELS 3 Zrotation Xrotation Yrotation
									JOINT LFingers
									{
OFFSET 0 -0.433160 -0.000000
CHANNELS 3 Zrotation Xrotation Yrotation
										End Site
										{
OFFSET 0 -0.349220 -0.000000
										}
									}
								}
								JOINT LThumb
								{
OFFSET 0 0.000000 0.000000
CHANNELS 3 Zrotation Xrotation Yrotation
									End Site
									{
OFFSET 0 -0.354560 0.354560
									}
								}
							}
						}
					}
				}
				JOINT RightCollar
				{
					OFFSET 0 0 0
					CHANNELS 3 Zrotation Yrotation Xrotation
					JOINT RightShoulder
					{
						OFFSET -3.09725 1.62858 -0.14144
CHANNELS 3 Zrotation Xrotation Yrotation
						JOINT RightElbow
						{
OFFSET 0 -4.291040 0.000000
CHANNELS 3 Zrotation Xrotation Yrotation
							JOINT RightWrist
							{
OFFSET 0 -3.227200 -0.000000
CHANNELS 3 Zrotation Xrotation Yrotation
								JOINT rhand
								{
									OFFSET 0 0 0
CHANNELS 3 Zrotation Xrotation Yrotation
									JOINT RFingers
									{
OFFSET 0 -0.543620 -0.000000
CHANNELS 3 Zrotation Xrotation Yrotation
										End Site
										{
OFFSET 0 -0.438280 -0.000000
										}
									}
								}
								JOINT RThumb
								{
OFFSET 0 0.000000 0.000000
CHANNELS 3 Zrotation Xrotation Yrotation
									End Site
									{
OFFSET 0 -0.444970 0.444970
									}
								}
							}
						}
					}
				}
			}
		}
	}
}
MOTION
Frames: 10
Frame Time: 0.008333333333333333
7.163214 15.934219 3.384642 -107.518706 -60.216778 -257.656973 0.000000 0.000000 0.000000 -3.961743 -15.461561 4.415918 2.048800 8.966955 25.691989 1.684931 -12.191921 -23.535926 6.349337 -14.757103 -46.365436 0.000000 0.000000 0.000000 9.608886 0.874556 -70.871918 -16.214809 -19.563908 78.823243 0.161974 -26.693599 -33.443997 -0.555992 4.655572 -12.950269 -6.394610 2.189379 23.914604 7.395766 1.978497 -1.118487 11.142182 1.681780 -14.946164 -10.230071 -9.407012 -10.993633 13.509455 -18.012641 32.112468 4.032913 -8.111289 15.404965 0.000000 0.000000 0.000000 58.243198 -10.926799 -38.988944 109.890815 -58.450750 77.136373 29.918908 20.675712 -17.039420 0.000000 0.000000 0.000000 -7.125000 0.000000 0.000000 2.013482 49.443310 -0.220970 0.000000 0.000000 0.000000 -45.329157 27.864427 44.046315 -28.650852 -39.708498 -10.536927 -26.707231 0.740353 13.875964 0.000000 0.000000 0.000000 7.125000 0.000000 0.000000 0.677483 45.436566 -0.007111
7.179334 15.879507 3.422381 -109.112220 -60.353533 -256.764015 0.000000 0.000000 0.000000 -4.600889 -14.634830 5.136675 2.016769 8.900614 25.485130 1.669018 -12.798469 -23.514669 6.137397 -14.559861 -45.530070 0.000000 0.000000 0.000000 8.024604 0.830651 -68.656709 -12.647880 -18.547822 67.920705 1.222863 -20.270553 -15.065026 -0.274486 3.360612 -9.285259 -6.666937 2.157233 24.362825 7.580076 1.831911 -0.805481 11.557419 1.613321 -14.802780 -9.887041 -9.027309 -10.166865 13.536235 -17.663153 32.081969 4.100745 -7.995032 15.097286 0.000000 0.000000 0.000000 58.320467 -12.687753 -38.493267 109.135091 -58.568585 76.491683 30.021426 20.112723 -17.030714 0.000000 0.000000 0.000000 -7.125000 0.000000 0.000000 2.116557 49.450901 -0.232293 0.000000 0.000000 0.000000 -45.223415 28.331673 44.009535 -28.580195 -39.644646 -10.491867 -26.547533 -0.074590 13.520006 0.000000 0.000000 0.000000 7.125000 0.000000 0.000000 0.780833 45.023334 -0.000030
7.194179 15.835371 3.462526 -110.764648 -60.714900 -255.633955 0.000000 0.000000 0.000000 -5.553734 -13.934281 5.883170 1.940894 8.741219 24.989575 1.720902 -12.878960 -23.865602 6.109628 -14.533566 -45.419725 0.000000 0.000000 0.000000 5.797390 1.296494 -65.287705 -8.860744 -16.512718 55.287727 2.020069 -24.301018 -12.087832 -0.304382 3.508065 -9.700718 -7.337367 2.166764 24.646441 7.700253 1.633819 -0.598763 12.157520 1.560150 -14.689949 -9.689435 -8.719327 -9.475624 13.678501 -17.555641 32.417694 4.190750 -7.984936 15.076995 0.000000 0.000000 0.000000 57.959689 -14.570840 -38.254741 107.356986 -58.822646 74.971458 30.151984 19.704867 -16.625789 0.000000 0.000000 0.000000 -7.125000 0.000000 0.000000 2.295143 49.016886 -0.226150 0.000000 0.000000 0.000000 -45.019610 28.845702 43.810148 -28.220243 -39.317029 -10.263369 -26.406072 -0.650989 13.385681 0.000000 0.000000 0.000000 7.125000 0.000000 0.000000 0.895484 44.857042 0.003080
7.206693 15.806071 3.500216 -112.432708 -61.408128 -254.238294 0.000000 0.000000 0.000000 -6.882118 -13.410480 6.459449 1.845294 8.535193 24.352478 1.807351 -12.808547 -24.413273 6.193632 -14.613391 -45.753843 0.000000 0.000000 0.000000 2.051769 3.321197 -59.279320 -4.806653 -12.732471 39.065606 0.978881 -20.480490 -17.220446 -0.600393 0.384871 -1.001903 -8.180029 2.143432 24.729791 7.658934 1.330963 -0.341849 12.701857 1.447900 -14.371667 -9.520067 -8.462813 -9.791650 13.745193 -17.525889 33.226528 4.203349 -7.947265 15.535569 0.000000 0.000000 0.000000 57.574781 -16.792420 -37.927649 104.252270 -59.202484 72.308629 30.572223 19.528866 -16.178571 0.000000 0.000000 0.000000 -7.125000 0.000000 0.000000 2.761903 48.581840 -0.243312 0.000000 0.000000 0.000000 -44.462403 29.036927 43.056760 -27.608188 -38.750676 -9.878339 -26.377694 -0.536165 13.713278 0.000000 0.000000 0.000000 7.125000 0.000000 0.000000 0.964576 45.213979 -0.005274
7.215031 15.794682 3.530228 -113.945155 -62.214929 -252.677846 0.000000 0.000000 0.000000 -8.206290 -13.070492 6.659699 1.757600 8.341336 23.756000 1.870711 -12.814088 -24.817943 6.195464 -14.615040 -45.760975 0.000000 0.000000 0.000000 -6.241948 11.152506 -49.611520 -1.505491 -6.749752 19.342527 -3.617604 -2.303540 -36.668835 -2.073928 -8.281097 24.074423 -9.045518 2.085778 24.502119 7.499530 0.993374 -0.173487 13.132732 1.316057 -13.969094 -9.446066 -8.256092 -10.480900 13.761763 -17.600896 34.352711 4.181370 -7.946420 16.280010 0.000000 0.000000 0.000000 57.184101 -19.292711 -37.825714 100.143058 -59.588336 68.771016 31.029609 19.575088 -15.908629 0.000000 0.000000 0.000000 -7.125000 0.000000 0.000000 3.240508 48.350896 -0.267848 0.000000 0.000000 0.000000 -43.554650 29.298525 41.916735 -26.884023 -38.066557 -9.428204 -26.445742 -0.105134 14.143038 0.000000 0.000000 0.000000 7.125000 0.000000 0.000000 0.958132 45.695891 -0.016236
7.219058 15.802447 3.546857 -115.051658 -62.835462 -251.134731 0.000000 0.000000 0.000000 -9.011574 -12.905771 6.288617 1.707939 8.229161 23.412361 1.896673 -12.797321 -24.979580 6.137067 -14.559816 -45.529329 0.000000 0.000000 0.000000 13.843485 9.648488 -59.527764 -0.039988 -1.016646 2.796667 -9.022898 2.418403 -16.576302 -4.312735 -12.560862 37.752929 -10.005829 2.053135 23.856926 7.371689 0.732222 -0.390217 13.647552 1.275615 -13.818242 -9.149240 -8.013604 -10.412856 13.488251 -17.593155 35.358124 4.044457 -7.968102 16.713500 0.000000 0.000000 0.000000 56.577230 -21.705750 -38.653951 95.519595 -59.864530 64.777404 30.924553 19.856787 -15.659306 0.000000 0.000000 0.000000 -7.125000 0.000000 0.000000 3.161575 48.050957 -0.239553 0.000000 0.000000 0.000000 -42.593596 30.432685 41.027323 -26.242402 -37.445903 -9.035107 -26.565440 0.056737 14.323736 0.000000 0.000000 0.000000 7.125000 0.000000 0.000000 0.870400 45.910776 -0.019542
7.216996 15.821082 3.548572 -115.595805 -63.309615 -249.804524 0.000000 0.000000 0.000000 -9.341356 -12.970816 5.402931 1.697381 8.205038 23.338639 1.900075 -12.796788 -25.000774 6.109549 -14.533674 -45.419898 0.000000 0.000000 0.000000 81.089709 -21.064416 -101.174176 -0.003128 0.323278 -0.888347 -10.409995 -19.290878 59.768391 -3.710098 -11.729389 34.825618 -10.754365 1.907786 22.905310 7.298153 0.426036 -0.721705 14.118231 1.205423 -13.616485 -8.926741 -7.828193 -10.406829 13.087224 -17.368124 35.864075 3.890112 -7.898657 16.851931 0.000000 0.000000 0.000000 55.711454 -23.872115 -39.726052 90.667150 -59.980391 60.577732 30.322069 20.480289 -15.515539 0.000000 0.000000 0.000000 -7.125000 0.000000 0.000000 2.585266 47.791223 -0.177917 0.000000 0.000000 0.000000 -41.690305 31.764937 40.307148 -25.701873 -36.912047 -8.708279 -26.439616 -0.310974 14.266137 0.000000 0.000000 0.000000 7.125000 0.000000 0.000000 0.980609 45.830525 -0.019450
7.206880 15.834797 3.541643 -115.564880 -63.757583 -248.871553 0.000000 0.000000 0.000000 -9.525158 -13.359396 4.231860 1.724949 8.267530 23.529955 1.896941 -12.852094 -24.988369 6.110472 -14.534566 -45.423524 0.000000 0.000000 0.000000 59.693157 -20.547189 -89.426451 -0.008049 0.578101 -1.588597 -4.068856 -8.501571 36.697607 -4.674161 -12.084052 37.613600 -11.073599 1.610187 21.888365 7.183996 0.040311 -1.148193 14.311744 1.070759 -13.444832 -8.967448 -7.771845 -10.508924 12.531871 -17.122682 36.261691 3.707378 -7.853140 16.963940 0.000000 0.000000 0.000000 54.582711 -26.016207 -41.110228 86.007978 -59.928489 56.543933 30.056005 21.121909 -15.578507 0.000000 0.000000 0.000000 -7.125000 0.000000 0.000000 2.319173 47.820569 -0.161349 0.000000 0.000000 0.000000 -40.775552 33.222353 39.605727 -25.213881 -36.420815 -8.416965 -25.924755 -0.985935 14.001851 0.000000 0.000000 0.000000 7.125000 0.000000 0.000000 1.426115 45.472152 -0.015169
7.190814 15.833157 3.531917 -114.859117 -63.945374 -248.689382 0.000000 0.000000 0.000000 -9.376915 -13.959399 2.984823 1.810166 8.458165 24.115127 1.878598 -13.035761 -24.898507 6.105942 -14.530162 -45.405323 0.000000 0.000000 0.000000 55.425270 -19.485923 -87.685077 -0.005149 0.376642 -1.034883 -5.098002 -3.865024 41.968121 -10.201839 -17.172895 59.606085 -10.609023 1.171460 21.149796 7.070349 -0.362992 -1.592740 14.045661 0.875563 -13.426488 -9.227519 -7.800859 -10.800110 12.032396 -16.839247 36.403831 3.579682 -7.792863 17.014648 0.000000 0.000000 0.000000 53.299539 -27.798383 -42.681659 82.242650 -59.767338 53.287370 30.102046 21.111099 -15.254961 0.000000 0.000000 0.000000 -7.125000 0.000000 0.000000 2.396998 47.462121 -0.145627 0.000000 0.000000 0.000000 -39.854294 34.591192 38.879817 -24.623713 -35.815540 -8.069215 -25.290715 -1.553382 13.480671 0.000000 0.000000 0.000000 7.125000 0.000000 0.000000 1.942438 44.820979 0.010137
7.174883 15.816828 3.520418 -113.598876 -63.678985 -249.353745 0.000000 0.000000 0.000000 -8.666774 -14.488875 1.985489 1.918675 8.694289 24.843837 1.830473 -13.365650 -24.643806 6.044997 -14.471859 -45.162261 0.000000 0.000000 0.000000 38.541114 -16.239355 -78.094091 -0.001370 -0.136586 0.375166 -2.464276 2.041331 29.198034 -3.717988 -10.925729 32.805391 -9.374172 0.673685 20.838277 7.045962 -0.692854 -1.913368 13.403469 0.651687 -13.529010 -9.480948 -7.951357 -11.386647 11.437124 -16.589405 36.366611 3.383521 -7.727142 17.034982 0.000000 0.000000 0.000000 51.998233 -29.129091 -44.196572 79.860378 -59.607120 51.230508 30.108304 20.380745 -14.534364 0.000000 0.000000 0.000000 -7.125000 0.000000 0.000000 2.472057 46.647510 -0.099756 0.000000 0.000000 0.000000 -38.990111 35.675080 38.104677 -23.939307 -35.099361 -7.671949 -24.638208 -1.856851 12.821044 0.000000 0.000000 0.000000 7.125000 0.000000 0.000000 2.450161 44.023134 0.060259
